<?xml version="1.0" encoding="UTF-8"?>
<svg width="100px" height="100px" viewBox="0 0 100 100" version="1.1" xmlns="http://www.w3.org/2000/svg" xmlns:xlink="http://www.w3.org/1999/xlink">
    <!-- Generator: Sketch 58 (84663) - https://sketch.com -->
    <title>iconmonstr-warning-4</title>
    <desc>Created with Sketch.</desc>
    <g id="Page-1" stroke="none" stroke-width="1" fill="none" fill-rule="evenodd">
        <g id="1024_1" transform="translate(-792.000000, -8174.000000)" fill="#FFFFFF" fill-rule="nonzero">
            <g id="iconmonstr-warning-4" transform="translate(792.000000, 8174.000000)">
                <path d="M50,8.33333333 C72.975,8.33333333 91.6666667,27.025 91.6666667,50 C91.6666667,72.975 72.975,91.6666667 50,91.6666667 C27.025,91.6666667 8.33333333,72.975 8.33333333,50 C8.33333333,27.025 27.025,8.33333333 50,8.33333333 Z M50,0 C22.3875,0 0,22.3875 0,50 C0,77.6125 22.3875,100 50,100 C77.6125,100 100,77.6125 100,50 C100,22.3875 77.6125,0 50,0 Z M43.75,25 L56.25,25 L52.0833333,58.3333333 L47.9166667,58.3333333 L43.75,25 Z M50,76.0416667 C47.125,76.0416667 44.7916667,73.7083333 44.7916667,70.8333333 C44.7916667,67.9583333 47.125,65.625 50,65.625 C52.875,65.625 55.2083333,67.9583333 55.2083333,70.8333333 C55.2083333,73.7083333 52.875,76.0416667 50,76.0416667 Z" id="Shape"></path>
            </g>
        </g>
    </g>
</svg>