<?xml version="1.0" encoding="UTF-8"?>
<svg width="60px" height="60px" viewBox="0 0 60 60" version="1.1" xmlns="http://www.w3.org/2000/svg" xmlns:xlink="http://www.w3.org/1999/xlink">
    <!-- Generator: Sketch 58 (84663) - https://sketch.com -->
    <title>iconmonstr-facebook-4</title>
    <desc>Created with Sketch.</desc>
    <g id="Page-1" stroke="none" stroke-width="1" fill="none" fill-rule="evenodd">
        <g id="1024_1" transform="translate(-332.000000, -9455.000000)" fill="#FFFFFF" fill-rule="nonzero">
            <g id="Group-8" transform="translate(332.000000, 9455.000000)">
                <g id="iconmonstr-facebook-4">
                    <path d="M30,0 C13.4325,0 0,13.4325 0,30 C0,46.5675 13.4325,60 30,60 C46.5675,60 60,46.5675 60,30 C60,13.4325 46.5675,0 30,0 Z M37.5,20 L34.125,20 C32.78,20 32.5,20.5525 32.5,21.945 L32.5,25 L37.5,25 L36.9775,30 L32.5,30 L32.5,47.5 L25,47.5 L25,30 L20,30 L20,25 L25,25 L25,19.23 C25,14.8075 27.3275,12.5 32.5725,12.5 L37.5,12.5 L37.5,20 Z" id="Shape"></path>
                </g>
            </g>
        </g>
    </g>
</svg>