<?xml version="1.0" encoding="UTF-8"?>
<svg width="90px" height="90px" viewBox="0 0 90 90" version="1.1" xmlns="http://www.w3.org/2000/svg" xmlns:xlink="http://www.w3.org/1999/xlink">
    <!-- Generator: Sketch 58 (84663) - https://sketch.com -->
    <title>iconmonstr-rocket-11</title>
    <desc>Created with Sketch.</desc>
    <g id="Page-1" stroke="none" stroke-width="1" fill="none" fill-rule="evenodd">
        <g id="1024_1" transform="translate(-467.000000, -6681.000000)" fill="#FFFFFF" fill-rule="nonzero">
            <g id="iconmonstr-rocket-11" transform="translate(467.000000, 6681.000000)">
                <path d="M89.8036927,0.1575 C88.2549427,0.0525 86.7399427,2.55795385e-13 85.2511927,2.55795385e-13 C53.0011927,2.55795385e-13 34.6374427,24.58875 27.9586927,44.37375 L45.6849427,62.1 C66.0399427,54.81 89.9986927,37.125 89.9986927,5.22 C89.9986927,3.57 89.9349427,1.8825 89.8036927,0.1575 Z M45.3386834,57.444375 L32.5768177,44.6866925 C37.9816869,32.0352133 53.3419624,5.10380301 86.5768177,3.444375 C85.465743,28.9995663 68.688958,47.394879 45.3386834,57.444375 Z M68.0311927,59.0925 C65.9799427,60.49125 63.9436927,61.755 61.9261927,62.88375 C61.2249427,66.225 59.4436927,69.79125 56.8599427,72.82875 C56.8524427,70.66875 56.2524427,68.49375 55.1986927,66.31125 C53.3424427,67.155 51.5761927,67.87875 49.8961927,68.51625 C52.3711927,74.925 49.8511927,79.6575 46.4649427,84.09375 C51.3249427,83.72625 56.4249427,81.34875 60.4449427,77.325 C64.7761927,72.99375 67.8211927,66.73875 68.0311927,59.0925 L68.0311927,59.0925 Z M23.7061927,34.83375 C21.5349427,33.78375 19.3636927,33.19125 17.2111927,33.18 C20.2224427,30.62625 23.7511927,28.85625 27.0586927,28.13625 C28.2361927,26.06625 29.5599427,24.0225 30.9549427,22.0125 C23.3086927,22.21875 17.0499427,25.26375 12.7149427,29.59875 C8.69869269,33.615 6.31744269,38.7225 5.94994269,43.57875 C10.3899427,40.18875 15.1224427,37.66875 21.5311927,40.15125 C22.1799427,38.385 22.9036927,36.61125 23.7061927,34.83375 Z M52.7236927,37.32 C51.2574427,35.85375 51.2574427,33.48375 52.7236927,32.0175 C54.1899427,30.55125 56.5599427,30.55125 58.0261927,32.0175 C59.4924427,33.4875 59.4924427,35.8575 58.0261927,37.32375 C56.5599427,38.79 54.1861927,38.78625 52.7236927,37.32 L52.7236927,37.32 Z M71.2824427,18.75375 C68.3574427,15.82875 63.6061927,15.82875 60.6774427,18.75375 C57.7486927,21.6825 57.7486927,26.4375 60.6774427,29.3625 C63.6061927,32.29125 68.3574427,32.29125 71.2861927,29.3625 C74.2111927,26.4375 74.2111927,21.68625 71.2824427,18.75375 L71.2824427,18.75375 Z M64.1274427,25.92 C63.1036927,24.89625 63.1036927,23.2275 64.1274427,22.2075 C65.1436927,21.18375 66.8161927,21.18375 67.8399427,22.2075 C68.8599427,23.2275 68.8561927,24.89625 67.8399427,25.92 C66.8124427,26.94 65.1474427,26.94 64.1274427,25.92 Z M33.2499427,59.05875 L37.0486927,62.85375 C33.5161927,66.43125 29.8974427,70.665 28.4724427,76.4925 L23.2599427,75.2175 C25.0111927,68.0475 29.2861927,63.0675 33.2499427,59.05875 Z M27.1224427,52.935 L30.9099427,56.7225 C26.7136927,60.85875 21.8611927,64.98375 14.7586927,66.72 L13.4836927,61.5075 C19.3074427,60.07875 23.5711927,56.445 27.1224427,52.935 L27.1224427,52.935 Z M37.4199427,77.1075 C38.1924427,84.71625 33.8724427,89.35125 28.1199427,89.93625 C24.7374427,90.28125 21.7411927,89.1675 19.2849427,86.63625 C13.3786927,88.72125 7.75744269,86.46 4.79494269,82.24125 C2.46244269,78.93 1.94494269,74.73375 3.36244269,70.71375 C0.827442691,68.25375 -0.286307309,65.28375 0.0624426911,61.87875 C0.639942691,56.175 5.16619269,51.77625 13.1274427,52.5975 L13.9149427,57.1275 C11.2299427,57.37875 8.74369269,57.5175 7.13119269,59.12625 C4.42369269,61.8375 5.24119269,67.485 10.3224427,68.985 C6.95119269,72.375 7.27369269,77.2425 9.80869269,79.9125 C12.4599427,82.71375 17.5224427,83.14875 21.0099427,79.67625 C22.5699427,84.96375 28.2924427,85.44 30.8686927,82.8675 C32.4586927,81.2775 32.6124427,78.83625 32.8599427,76.185 L37.4199427,77.1075 Z" id="Shape"></path>
            </g>
        </g>
    </g>
</svg>