<?xml version="1.0" encoding="UTF-8"?>
<svg width="100px" height="100px" viewBox="0 0 100 100" version="1.1" xmlns="http://www.w3.org/2000/svg" xmlns:xlink="http://www.w3.org/1999/xlink">
    <!-- Generator: Sketch 58 (84663) - https://sketch.com -->
    <title>iconmonstr-party-22</title>
    <desc>Created with Sketch.</desc>
    <g id="Page-1" stroke="none" stroke-width="1" fill="none" fill-rule="evenodd">
        <g id="1024_1" transform="translate(-132.000000, -6671.000000)" fill="#FFFFFF">
            <g id="iconmonstr-party-22" transform="translate(132.000000, 6671.000000)">
                <path d="M7.85866078,61.7734072 L18.4174341,79.44081 L15.6298179,80.0866703 C12.8380349,80.7283637 10.8296179,82.2909288 9.97958248,84.4701863 C9.3087212,86.2035918 9.46289429,88.1161715 10.3920997,89.4662278 C11.3921413,90.9329555 13.0588775,91.7704904 14.9631235,91.7704904 C18.3299304,91.7704904 21.6300679,89.1245469 22.6092754,85.8369099 C23.0342931,84.424351 23.2259677,82.232593 21.7509063,79.832493 L10.071253,60.4316847 L7.85866078,61.7734072 L7.85866078,61.7734072 Z M14.9631235,95.9373307 C11.662986,95.9373307 8.74203092,94.4414351 6.95862328,91.8371599 C5.26271928,89.3537231 4.9335389,85.9619151 6.10025418,82.9659569 C7.14196425,80.2866786 9.24621859,78.1740906 12.0463353,76.911538 L2.15425643,60.3608484 L11.4838118,54.6981124 L25.3052211,77.6657361 C27.080295,80.5408559 27.5428143,83.8784949 26.6011084,87.032793 C25.4510605,90.8912871 21.2342181,95.9373307 14.9631235,95.9373307 L14.9631235,95.9373307 Z M75.1031293,100 C76.2490104,99.9583316 77.1490479,98.9999583 77.1115463,97.8415767 C76.8740364,91.0537939 78.607442,89.7620734 82.8451185,89.2912205 C89.1037127,88.5828576 89.9704154,84.7743656 90.5954415,81.9909163 C91.2663028,79.0449602 91.7079878,77.0907121 98.0124172,76.7573649 C99.1582983,76.6990291 100.041668,75.7239885 99.974999,74.5656069 C99.9249969,73.4197258 98.9624568,72.5238552 97.7915746,72.5988583 C89.0620443,73.0530439 87.4869786,76.8698696 86.536939,81.0700446 C85.9577482,83.6076503 85.6994041,84.7743656 82.3825993,85.1452144 C73.7364057,86.1160882 72.736364,91.8954956 72.944706,97.9874161 C72.9863744,99.112463 73.911413,100 75.0281262,100 L75.1031293,100 L75.1031293,100 Z M86.2077587,54.031418 L89.5870661,55.648152 L89.095379,51.9271636 L91.67882,49.2062169 L87.9869995,48.5228551 L86.2077587,45.2227176 L84.4201842,48.5228551 L80.7325305,49.2062169 L83.3159715,51.9271636 L82.8201175,55.648152 L86.2077587,54.031418 L86.2077587,54.031418 Z M94.7331139,62.7276137 L86.2077587,58.6524439 L77.6782366,62.7276137 L78.9241218,53.352223 L72.4071836,46.5019376 L81.7034043,44.7851994 L86.2077587,36.4681862 L90.7079462,44.7851994 L100,46.5019376 L93.4913955,53.352223 L94.7331139,62.7276137 Z M54.6397767,4.16684029 C53.4272261,4.16684029 52.2521772,4.42518438 51.1437977,4.93770574 C46.9436227,6.87111963 45.0977124,11.8671611 47.0269595,16.071503 C48.8978707,20.1425059 54.0480853,22.0759198 58.1565899,20.192508 C60.1941748,19.2508021 61.7400725,17.5798992 62.5151048,15.4756448 C63.2943039,13.3713905 63.2026334,11.0921288 62.2692612,9.05454394 C60.9025376,6.08775366 57.9107463,4.16684029 54.6397767,4.16684029 L54.6397767,4.16684029 Z M54.656444,25.1302138 C49.7687404,25.1302138 45.2852202,22.2592608 43.2434685,17.8174091 C40.3558482,11.5213134 43.1142964,4.04600192 49.4020584,1.15004792 C51.0604609,0.387516147 52.8230343,0 54.6397767,0 C59.5316472,0 64.0151673,2.87095296 66.0527522,7.3128047 C67.4528105,10.3587649 67.5819826,13.7714071 66.423601,16.9173716 C65.2610525,20.0716697 62.9442893,22.5759407 59.8983291,23.975999 C58.2399267,24.7426976 56.4773532,25.1302138 54.656444,25.1302138 L54.656444,25.1302138 Z M23.8884954,14.5631068 C27.6844869,20.688362 38.7766157,36.9182049 38.7766157,36.9182049 L35.5056461,51.0812951 C34.5181049,54.7731155 34.9639568,57.135714 35.7014876,60.0775032 L44.351848,95.8748281 L45.9602483,64.0193341 L64.1026709,72.2863453 C64.1026709,72.2863453 61.5942331,85.128547 60.7525314,89.5162298 C60.7525314,89.5162298 66.7069461,75.4114755 68.1361723,71.8988291 C68.7111963,70.4737697 68.4445185,69.6195675 66.8819534,67.8944956 C63.9484979,64.6318597 56.2606775,56.6190258 56.2606775,56.6190258 L59.5566482,42.2475936 C59.5566482,42.2475936 77.0448769,30.0054169 82.3450977,25.9469145 C82.6117755,25.7469061 82.6076087,25.592733 82.5659402,25.4718947 L82.1909246,25.1968832 C78.4907704,26.5886079 72.0113338,29.3970582 67.0652944,31.5388141 L62.2109255,33.6389016 C60.6858619,34.2889287 58.9816242,34.4264344 57.3773907,34.0139172 L43.5226468,30.5304388 C41.9892496,30.1470895 40.5558565,29.3928914 39.3724739,28.3386808 L23.8884954,14.5631068 L23.8884954,14.5631068 Z M44.3935164,99.9499979 C42.7226134,99.9416642 40.6808617,98.9166215 39.9808325,96.0456686 C37.9057461,87.5703154 31.6513188,61.0650444 31.6513188,61.0650444 C30.8304513,57.7690737 30.2429268,54.6481103 31.463811,50.0729197 L34.3055961,37.7599067 C32.1346723,34.5806075 23.7134881,22.2300929 20.3925164,17.1840493 C19.463311,15.7673236 19.3549731,14.0922538 20.1050044,12.6963623 C21.3425559,10.4004334 24.6926955,9.70040418 26.6511105,11.4463103 L42.1392558,25.2218842 C42.8226176,25.8260761 43.6518188,26.2677612 44.535189,26.4886037 L58.3940998,29.9720822 C59.1149631,30.15959 59.8858286,30.0970874 60.5733572,29.8012417 L65.4152256,27.7136547 C70.3987666,25.5552315 76.936539,22.7217801 80.303346,21.3967249 C82.8701196,20.3800158 85.6827368,21.68007 86.5161048,24.1343389 C87.1452977,26.0052502 86.5036043,28.0178341 84.8743698,29.2637193 C80.0450019,32.9555398 66.4569357,42.5017709 63.2609692,44.7476978 L60.8275345,55.3564732 C62.7276137,57.344056 67.6194841,62.4817701 69.9695821,65.0943789 C71.823826,67.1361307 73.5113963,69.7320722 71.9946664,73.4780616 C70.5654402,76.9990416 68.0028335,83.0534606 66.0944206,87.5786491 L64.5693571,91.1871328 C63.3859744,93.99975 59.3066378,94.6747781 57.4940623,92.4788533 C56.6815284,91.495479 56.3856827,90.1579232 56.6606942,88.7370307 C57.3065544,85.3660569 58.7441143,77.9949165 59.3816409,74.71978 L49.8645777,70.3820993 C49.5853994,76.8698696 48.9478728,91.6496521 48.7228635,95.695654 C48.5853577,98.1582566 46.7644485,99.9499979 44.3935164,99.9499979 L44.3935164,99.9499979 Z M12.2255094,24.9968749 L0,37.2348848 L12.2255094,49.4728947 L24.4551856,37.2348848 L12.2255094,24.9968749 Z M12.2255094,30.8929539 L18.5632735,37.2348848 L12.2255094,43.5768157 L5.89191216,37.2348848 L12.2255094,30.8929539 L12.2255094,30.8929539 Z" id="Shape"></path>
            </g>
        </g>
    </g>
</svg>