<?xml version="1.0" encoding="UTF-8"?>
<svg width="60px" height="60px" viewBox="0 0 60 60" version="1.1" xmlns="http://www.w3.org/2000/svg" xmlns:xlink="http://www.w3.org/1999/xlink">
    <!-- Generator: Sketch 58 (84663) - https://sketch.com -->
    <title>iconmonstr-whatsapp-4</title>
    <desc>Created with Sketch.</desc>
    <g id="Page-1" stroke="none" stroke-width="1" fill="none" fill-rule="evenodd">
        <g id="1024_1" transform="translate(-632.000000, -9455.000000)" fill="#FFFFFF" fill-rule="nonzero">
            <g id="Group-8" transform="translate(332.000000, 9455.000000)">
                <g id="iconmonstr-whatsapp-4" transform="translate(300.000000, 0.000000)">
                    <path d="M30.0775,15.43 C22.125,15.43 15.66,21.895 15.6574951,29.845 C15.655,33.09 16.6075,35.52 18.205,38.0625 L16.75,43.3825 L22.205,41.95 C24.65,43.4 26.9825,44.27 30.0675,44.2725 C38.0125,44.2725 44.485,37.805 44.4875007,29.8575 C44.49,21.89 38.05,15.4325 30.0775,15.43 L30.0775,15.43 Z M38.5575,36.04 C38.1975,37.0525 36.465,37.975 35.6325,38.1 C34.885,38.2125 33.94,38.2575 32.9025,37.9275 C32.2725,37.7275 31.465,37.46 30.4325,37.015 C26.085,35.1375 23.2475,30.76 23.03,30.4725 C22.8125,30.1825 21.26,28.1225 21.26,25.99 C21.26,23.8575 22.38,22.8075 22.7775,22.375 C23.175,21.9425 23.6425,21.8325 23.9325,21.8325 L24.7625,21.8475 C25.0275,21.86 25.385,21.7475 25.7375,22.5925 C26.0975,23.46 26.965,25.5925 27.0725,25.81 C27.18,26.0275 27.2525,26.28 27.1075,26.57 C26.9625,26.86 26.89,27.04 26.675,27.2925 L26.025,28.0525 C25.8075,28.2675 25.5825,28.5025 25.835,28.9375 C26.0875,29.3725 26.9575,30.79 28.245,31.94 C29.9,33.4175 31.2975,33.875 31.73,34.09 C32.1625,34.305 32.415,34.27 32.67,33.9825 C32.9225,33.6925 33.7525,32.7175 34.0425,32.2825 C34.3325,31.85 34.62,31.92 35.0175,32.065 C35.415,32.21 37.545,33.2575 37.9775,33.475 C38.41,33.6925 38.7,33.8 38.8075,33.98 C38.92,34.16 38.92,35.0275 38.5575,36.04 L38.5575,36.04 Z M30,0 C13.4325,0 0,13.4325 0,30 C0,46.5675 13.4325,60 30,60 C46.5675,60 60,46.5675 60,30 C60,13.4325 46.5675,0 30,0 Z M30.0725,47.2 C27.17,47.2 24.31,46.47 21.7775,45.09 L12.585,47.5 L15.045,38.5125 C13.5275,35.8825 12.7275,32.8975 12.73,29.8425 C12.7325,20.28 20.5125,12.5 30.0725,12.5 C34.7125,12.5025 39.0675,14.3075 42.34,17.585 C45.615,20.8625 47.4175,25.22 47.4150026,29.855 C47.4125,39.4175 39.6325,47.2 30.0725,47.2 L30.0725,47.2 Z" id="Shape"></path>
                </g>
            </g>
        </g>
    </g>
</svg>