<?xml version="1.0" encoding="UTF-8"?>
<svg width="40px" height="40px" viewBox="0 0 40 40" version="1.1" xmlns="http://www.w3.org/2000/svg" xmlns:xlink="http://www.w3.org/1999/xlink">
    <!-- Generator: Sketch 58 (84663) - https://sketch.com -->
    <title>Shape</title>
    <desc>Created with Sketch.</desc>
    <g id="Page-1" stroke="none" stroke-width="1" fill="none" fill-rule="evenodd">
        <g id="iPhone-8-Copy-5" transform="translate(-198.000000, -2568.000000)" fill="#6DD400" fill-rule="nonzero">
            <g id="FIT" transform="translate(27.000000, 1387.000000)">
                <g id="NB" transform="translate(1.000000, 1117.000000)">
                    <g id="Group-3" transform="translate(110.000000, 64.000000)">
                        <g id="iconmonstr-whatsapp-4" transform="translate(60.000000, 0.000000)">
                            <path d="M20.0516667,10.2866667 C14.75,10.2866667 10.44,14.5966667 10.4383301,19.8966667 C10.4366667,22.06 11.0716667,23.68 12.1366667,25.375 L11.1666667,28.9216667 L14.8033333,27.9666667 C16.4333333,28.9333333 17.9883333,29.5133333 20.045,29.515 C25.3416667,29.515 29.6566667,25.2033333 29.6583338,19.905 C29.66,14.5933333 25.3666667,10.2883333 20.0516667,10.2866667 L20.0516667,10.2866667 Z M25.705,24.0266667 C25.465,24.7016667 24.31,25.3166667 23.755,25.4 C23.2566667,25.475 22.6266667,25.505 21.935,25.285 C21.515,25.1516667 20.9766667,24.9733333 20.2883333,24.6766667 C17.39,23.425 15.4983333,20.5066667 15.3533333,20.315 C15.2083333,20.1216667 14.1733333,18.7483333 14.1733333,17.3266667 C14.1733333,15.905 14.92,15.205 15.185,14.9166667 C15.45,14.6283333 15.7616667,14.555 15.955,14.555 L16.5083333,14.565 C16.685,14.5733333 16.9233333,14.4983333 17.1583333,15.0616667 C17.3983333,15.64 17.9766667,17.0616667 18.0483333,17.2066667 C18.12,17.3516667 18.1683333,17.52 18.0716667,17.7133333 C17.975,17.9066667 17.9266667,18.0266667 17.7833333,18.195 L17.35,18.7016667 C17.205,18.845 17.055,19.0016667 17.2233333,19.2916667 C17.3916667,19.5816667 17.9716667,20.5266667 18.83,21.2933333 C19.9333333,22.2783333 20.865,22.5833333 21.1533333,22.7266667 C21.4416667,22.87 21.61,22.8466667 21.78,22.655 C21.9483333,22.4616667 22.5016667,21.8116667 22.695,21.5216667 C22.8883333,21.2333333 23.08,21.28 23.345,21.3766667 C23.61,21.4733333 25.03,22.1716667 25.3183333,22.3166667 C25.6066667,22.4616667 25.8,22.5333333 25.8716667,22.6533333 C25.9466667,22.7733333 25.9466667,23.3516667 25.705,24.0266667 L25.705,24.0266667 Z M20,0 C8.955,0 0,8.955 0,20 C0,31.045 8.955,40 20,40 C31.045,40 40,31.045 40,20 C40,8.955 31.045,0 20,0 Z M20.0483333,31.4666667 C18.1133333,31.4666667 16.2066667,30.98 14.5183333,30.06 L8.39,31.6666667 L10.03,25.675 C9.01833333,23.9216667 8.485,21.9316667 8.48666667,19.895 C8.48833333,13.52 13.675,8.33333333 20.0483333,8.33333333 C23.1416667,8.335 26.045,9.53833333 28.2266667,11.7233333 C30.41,13.9083333 31.6116667,16.8133333 31.6100017,19.9033333 C31.6083333,26.2783333 26.4216667,31.4666667 20.0483333,31.4666667 L20.0483333,31.4666667 Z" id="Shape"></path>
                        </g>
                    </g>
                </g>
            </g>
        </g>
    </g>
</svg>