<?xml version="1.0" encoding="UTF-8"?>
<svg width="97px" height="97px" viewBox="0 0 97 97" version="1.1" xmlns="http://www.w3.org/2000/svg" xmlns:xlink="http://www.w3.org/1999/xlink">
    <!-- Generator: Sketch 58 (84663) - https://sketch.com -->
    <title>iconmonstr-calendar-8</title>
    <desc>Created with Sketch.</desc>
    <g id="Page-1" stroke="none" stroke-width="1" fill="none" fill-rule="evenodd">
        <g id="1024_1" transform="translate(-464.000000, -8176.000000)" fill="#FFFFFF" fill-rule="nonzero">
            <g id="iconmonstr-calendar-8" transform="translate(464.000000, 8176.000000)">
                <path d="M70.8333333,4.16666667 C70.8333333,1.86666667 68.9708333,0 66.6666667,0 C64.3625,0 62.5,1.86666667 62.5,4.16666667 L62.5,12.5 C62.5,14.8 64.3625,16.6666667 66.6666667,16.6666667 C68.9708333,16.6666667 70.8333333,14.8 70.8333333,12.5 L70.8333333,4.16666667 Z M20.8333333,12.5 C20.8333333,14.8 18.9708333,16.6666667 16.6666667,16.6666667 C14.3625,16.6666667 12.5,14.8 12.5,12.5 L12.5,4.16666667 C12.5,1.86666667 14.3625,0 16.6666667,0 C18.9708333,0 20.8333333,1.86666667 20.8333333,4.16666667 L20.8333333,12.5 Z M77,29.3333333 L77,78 L6.33333333,78 L6.33333333,29.3333333 L77,29.3333333 Z M83.3333333,8 L75,8 L75,12.1666667 C75,16.7625 71.2625,20.5 66.6666667,20.5 C62.0708333,20.5 58.3333333,16.7625 58.3333333,12.1666667 L58.3333333,8 L25,8 L25,12.1666667 C25,16.7625 21.2625,20.5 16.6666667,20.5 C12.0708333,20.5 8.33333333,16.7625 8.33333333,12.1666667 L8.33333333,8 L0,8 L0,83 L83.3333333,83 L83.3333333,8 Z M42.0353423,67 C36.5436757,67 32.902009,63.8291667 33.002009,57.8125 L38.189509,57.8125 C38.2811757,60.4791667 39.3561757,62.425 41.9686757,62.425 C43.6978423,62.425 45.4353423,61.3958333 45.4353423,59.0958333 C45.4353423,56.1791667 43.414509,55.9666667 40.0186757,55.9666667 L40.0186757,51.8958333 C42.4061757,52.1041667 45.002009,51.7625 45.002009,49.3625 C45.002009,47.4666667 43.464509,46.6 42.039509,46.6 C39.6436757,46.6 38.7353423,48.3583333 38.7811757,50.7791667 L33.5478423,50.7791667 C33.764509,44.9416667 37.3061757,42 42.002009,42 C46.0353423,42 50.2061757,44.5541667 50.2061757,48.8333333 C50.2061757,51.05 49.2311757,52.7708333 47.5478423,53.6125 C49.7478423,54.4583333 51.077009,56.45 51.077009,59 C51.0728423,64.0041667 46.939509,67 42.0353423,67 Z M97,20.8333333 L97,97 L8.33333333,97 L8.33333333,91.6666667 L91.6666667,91.6666667 L91.6666667,20.8333333 L97,20.8333333 Z" id="Shape"></path>
            </g>
        </g>
    </g>
</svg>