<?xml version="1.0" encoding="UTF-8"?>
<svg width="61px" height="99px" viewBox="0 0 61 99" version="1.1" xmlns="http://www.w3.org/2000/svg" xmlns:xlink="http://www.w3.org/1999/xlink">
    <!-- Generator: Sketch 58 (84663) - https://sketch.com -->
    <title>Group 11</title>
    <desc>Created with Sketch.</desc>
    <g id="Page-1" stroke="none" stroke-width="1" fill="none" fill-rule="evenodd">
        <g id="1024_1" transform="translate(-152.000000, -8175.000000)">
            <g id="Group-11" transform="translate(152.000000, 8175.000000)">
                <rect id="Rectangle" stroke="#FFFFFF" stroke-width="6" x="3" y="3" width="55" height="93" rx="10"></rect>
                <g id="iconmonstr-layer-7" transform="translate(21.000000, 30.000000)" fill="#FFFFFF" fill-rule="nonzero">
                    <path d="M18,2 L18,18 L2,18 L2,2 L18,2 Z M20,0 L0,0 L0,20 L20,20 L20,0 Z M13.625,5.996 L8.643,11.128 L6.375,8.943 L5,10.332 L8.643,13.908 L15,7.385 L13.625,5.996 L13.625,5.996 Z" id="Shape"></path>
                </g>
                <rect id="Rectangle" stroke="#FFFFFF" stroke-width="2" transform="translate(30.500000, 87.500000) scale(1, -1) translate(-30.500000, -87.500000) " x="25.5" y="87" width="10" height="1" rx="0.5"></rect>
            </g>
        </g>
    </g>
</svg>