<?xml version="1.0" encoding="UTF-8"?>
<svg width="117px" height="95px" viewBox="0 0 117 95" version="1.1" xmlns="http://www.w3.org/2000/svg" xmlns:xlink="http://www.w3.org/1999/xlink">
    <!-- Generator: Sketch 58 (84663) - https://sketch.com -->
    <title>noun_lunchbox_2330198</title>
    <desc>Created with Sketch.</desc>
    <g id="Page-1" stroke="none" stroke-width="1" fill="none" fill-rule="evenodd">
        <g id="1024_1" transform="translate(-783.000000, -6676.000000)">
            <g id="noun_lunchbox_2330198" transform="translate(784.000000, 6676.000000)">
                <g id="Group-3">
                    <g id="Group" transform="translate(31.000000, 0.000000)" fill="#FFFFFF" fill-rule="nonzero">
                        <path d="M51.1961538,95 L17.4576923,95 C12.2088661,94.9996359 7.63336878,91.0080169 6.35865385,85.3173077 L3.26923077,71.6884615 C3.14517013,71.1420571 3.25375239,70.562242 3.56346154,70.1173077 C3.88587109,69.660573 4.3836362,69.4027636 4.90384615,69.4230769 L63.75,69.4230769 C64.2531025,69.420048 64.7294254,69.6761203 65.0413462,70.1173077 C65.3510553,70.562242 65.4596376,71.1420571 65.3355769,71.6884615 L62.2951923,85.3173077 C61.0204774,91.0080169 56.4449801,94.9996359 51.1961538,95 L51.1961538,95 Z M8.21899853,73.4219603 L10.6785794,84.6179602 C11.5601257,88.5928657 14.6979803,91.3900601 18.3112141,91.4219603 L51.0633099,91.4219603 C54.7002258,91.4228873 57.8720103,88.6187658 58.7594177,84.6179602 L61.2189985,73.4219603 L8.21899853,73.4219603 Z" id="Shape"></path>
                        <path d="M67.0192308,73.0769231 L1.63461538,73.0769231 C0.731842236,73.0769231 0,72.2589818 0,71.25 L0,62.1153846 C0,61.1064029 0.731842236,60.2884615 1.63461538,60.2884615 L67.0192308,60.2884615 C67.9220039,60.2884615 68.6538462,61.1064029 68.6538462,62.1153846 L68.6538462,71.25 C68.6538462,72.2589818 67.9220039,73.0769231 67.0192308,73.0769231 Z M3.26923077,69.4230769 L65.3846154,69.4230769 L65.3846154,63.9423077 L3.26923077,63.9423077 L3.26923077,69.4230769 Z" id="Shape"></path>
                        <path d="M63.75,63.9423077 L4.90384615,63.9423077 C4.40074367,63.9453366 3.92442077,63.6892643 3.6125,63.2480769 C3.28559866,62.8125705 3.15871222,62.2318074 3.26923077,61.6769231 L6.35865385,48.0480769 C7.63336878,42.3573677 12.2088661,38.3657487 17.4576923,38.3653846 L51.1961538,38.3653846 C56.4449801,38.3657487 61.0204774,42.3573677 62.2951923,48.0480769 L65.3846154,61.6769231 C65.508676,62.2233275 65.4000938,62.8031426 65.0903846,63.2480769 C64.7679751,63.7048116 64.27021,63.9626211 63.75,63.9423077 Z M8.23015872,60.3653846 L61.2301587,60.3653846 L58.77352,49.1693848 C57.8871741,45.1685791 54.7191835,42.3644576 51.086618,42.3653846 L18.3736994,42.3653846 C14.7411339,42.3644576 11.5731434,45.1685791 10.6867975,49.1693848 L8.23015872,60.3653846 Z" id="Shape"></path>
                        <path d="M39.2307692,80.3846154 L27.7884615,80.3846154 C24.1773689,80.3846154 21.25,77.1128501 21.25,73.0769231 L21.25,71.25 C21.25,70.2410182 21.9818422,69.4230769 22.8846154,69.4230769 L44.1346154,69.4230769 C45.0373885,69.4230769 45.7692308,70.2410182 45.7692308,71.25 L45.7692308,73.0769231 C45.7692308,77.1128501 42.8418618,80.3846154 39.2307692,80.3846154 Z M24.5192308,73.0769231 C24.5192308,75.0948866 25.9829152,76.7307692 27.7884615,76.7307692 L39.2307692,76.7307692 C41.0363155,76.7307692 42.5,75.0948866 42.5,73.0769231 L24.5192308,73.0769231 Z" id="Shape"></path>
                        <path d="M80.0961538,95 L51.1961538,95 C50.2933807,95 49.5615385,94.1820587 49.5615385,93.1730769 C49.5615385,92.1640952 50.2933807,91.3461538 51.1961538,91.3461538 C54.9425995,91.347095 58.2099058,88.5010314 59.1240385,84.4403846 L62.1153846,70.8115385 C62.2997946,69.9762998 62.9805912,69.3980232 63.75,69.4230769 L65.3846154,69.4230769 L65.3846154,63.9423077 L63.75,63.9423077 C62.9805912,63.9673614 62.2997946,63.3890848 62.1153846,62.5538462 L59.075,48.925 C58.1653775,44.8840938 54.924308,42.0433127 51.1961538,42.0192308 L47.4038462,42.0192308 C46.501073,42.0192308 45.7692308,41.2012894 45.7692308,40.1923077 L45.7692308,32.8846154 C45.7692308,29.8576701 47.9647575,27.4038462 50.6730769,27.4038462 L80.0961538,27.4038462 C82.8044733,27.4038462 85,29.8576701 85,32.8846154 L85,89.5192308 C85,92.546176 82.8044733,95 80.0961538,95 Z M59.3366154,91.2019231 L79.7846154,91.2019231 C80.668271,91.2019231 81.3846154,90.3878953 81.3846154,89.3837413 L81.3846154,33.0201049 C81.3846154,32.0159508 80.668271,31.2019231 79.7846154,31.2019231 L50.9846154,31.2019231 C50.1009598,31.2019231 49.3846154,32.0159508 49.3846154,33.0201049 L49.3846154,38.4746503 L51.4966154,38.4746503 C56.63429,38.4750127 61.1128944,42.447533 62.3606154,48.111014 L65.0326154,60.2928322 L66.9846154,60.2928322 C67.868271,60.2928322 68.5846154,61.1068599 68.5846154,62.111014 L68.5846154,71.2019231 C68.5846154,72.2060772 67.868271,73.0201049 66.9846154,73.0201049 L65.0326154,73.0201049 L62.3606154,85.2019231 C61.8591687,87.4807112 60.8125417,89.5573521 59.3366154,91.2019231 Z" id="Shape"></path>
                        <path d="M80.0961538,31.0576923 L50.6730769,31.0576923 C49.7703038,31.0576923 49.0384615,30.239751 49.0384615,29.2307692 L49.0384615,21.9230769 C49.0384615,20.9140952 49.7703038,20.0961538 50.6730769,20.0961538 L80.0961538,20.0961538 C80.998927,20.0961538 81.7307692,20.9140952 81.7307692,21.9230769 L81.7307692,29.2307692 C81.7307692,30.239751 80.998927,31.0576923 80.0961538,31.0576923 Z M52.3076923,27.4038462 L78.4615385,27.4038462 L78.4615385,23.75 L52.3076923,23.75 L52.3076923,27.4038462 Z" id="Shape"></path>
                        <path d="M80.0961538,23.75 L50.6730769,23.75 C47.9647575,23.75 45.7692308,21.296176 45.7692308,18.2692308 L45.7692308,12.7884615 C45.7692308,5.72558926 50.8921264,0 57.2115385,0 L73.5576923,0 C79.8771043,0 85,5.72558926 85,12.7884615 L85,18.2692308 C85,21.296176 82.8044733,23.75 80.0961538,23.75 L80.0961538,23.75 Z M57.3846154,3.875 C52.9663374,3.875 49.3846154,7.85469111 49.3846154,12.7638889 L49.3846154,18.0972222 C49.3846154,19.0790618 50.1009598,19.875 50.9846154,19.875 L79.7846154,19.875 C80.668271,19.875 81.3846154,19.0790618 81.3846154,18.0972222 L81.3846154,12.7638889 C81.3846154,7.85469111 77.8028934,3.875 73.3846154,3.875 L57.3846154,3.875 Z" id="Shape"></path>
                    </g>
                    <path d="M9.5,57.1544045 L20.5,57.1544045" id="Line-2" stroke="#FFFFFF" stroke-width="3" stroke-linecap="square"></path>
                    <path d="M0.5,66.1544045 L20.5,66.1544045" id="Line-2" stroke="#FFFFFF" stroke-width="3" stroke-linecap="square"></path>
                    <path d="M9.5,75.1544045 L20.5,75.1544045" id="Line-2" stroke="#FFFFFF" stroke-width="3" stroke-linecap="square"></path>
                </g>
            </g>
        </g>
    </g>
</svg>