<?xml version="1.0" encoding="UTF-8"?>
<svg width="60px" height="60px" viewBox="0 0 60 60" version="1.1" xmlns="http://www.w3.org/2000/svg" xmlns:xlink="http://www.w3.org/1999/xlink">
    <!-- Generator: Sketch 58 (84663) - https://sketch.com -->
    <title>iconmonstr-vk-4</title>
    <desc>Created with Sketch.</desc>
    <g id="Page-1" stroke="none" stroke-width="1" fill="none" fill-rule="evenodd">
        <g id="1024_1" transform="translate(-432.000000, -9455.000000)" fill="#FFFFFF" fill-rule="nonzero">
            <g id="Group-8" transform="translate(332.000000, 9455.000000)">
                <g id="iconmonstr-vk-4" transform="translate(100.000000, 0.000000)">
                    <path d="M30,0 C13.4325,0 0,13.4325 0,30 C0,46.5675 13.4325,60 30,60 C46.5675,60 60,46.5675 60,30 C60,13.4325 46.5675,0 30,0 Z M45.86,40.4075 L41.1925,40.4075 C38.555,40.4075 38.1125,38.905 35.9375,36.735 C33.975,34.7725 32.8875,36.2775 32.9325,39.0725 C32.9475,39.815 32.58,40.4075 31.695,40.4075 C28.9325,40.4075 24.96,40.7975 20.935,36.4575 C16.8175,32.01 12.5,23.0875 12.5,22.21 C12.5,21.69 12.93,21.4575 13.6475,21.4575 L18.3925,21.4575 C19.65,21.4575 19.755,22.08 20.1075,22.8775 C21.5675,26.205 25.06,32.8825 25.9925,29.155 C26.5275,27.015 26.745,22.0575 24.455,21.63 C23.155,21.39 25.445,20 28.76,20 C29.585,20 30.48,20.0875 31.395,20.3 C33.0775,20.69 33.085,21.445 33.06,22.545 C32.975,26.71 32.4725,29.51 33.57,30.2175 C34.6175,30.895 37.3725,26.4625 38.83,23.04 C39.2275,22.095 39.3075,21.46 40.4375,21.46 L46.2425,21.46 C49.2825,21.46 45.845,25.83 43.2175,29.24 C41.1,31.9875 41.2125,32.04 43.675,34.325 C45.4275,35.9525 47.5,38.175 47.5,39.4325 C47.5,40.0275 47.035,40.4075 45.86,40.4075 Z" id="Shape"></path>
                </g>
            </g>
        </g>
    </g>
</svg>