<?xml version="1.0" encoding="UTF-8"?>
<svg width="40px" height="40px" viewBox="0 0 40 40" version="1.1" xmlns="http://www.w3.org/2000/svg" xmlns:xlink="http://www.w3.org/1999/xlink">
    <!-- Generator: Sketch 58 (84663) - https://sketch.com -->
    <title>iconmonstr-telegram-4</title>
    <desc>Created with Sketch.</desc>
    <g id="Page-1" stroke="none" stroke-width="1" fill="none" fill-rule="evenodd">
        <g id="iPhone-8-Copy-5" transform="translate(-138.000000, -2568.000000)" fill="#32C5FF">
            <g id="FIT" transform="translate(27.000000, 1387.000000)">
                <g id="NB" transform="translate(1.000000, 1117.000000)">
                    <g id="Group-3" transform="translate(110.000000, 64.000000)">
                        <g id="iconmonstr-telegram-4">
                            <path d="M20,0 C8.95666667,0 0,8.95333333 0,20 C0,31.045 8.95666667,40 20,40 C31.045,40 40,31.045 40,20 C40,8.95333333 31.045,0 20,0 Z M25.3733333,29.785 C25.6866667,30.0066667 26.09,30.0616667 26.45,29.9266667 C26.8083333,29.79 27.0733333,29.4816667 27.1533333,29.1083333 C27.9983333,25.1383333 30.0483333,15.0883333 30.8166667,11.4783333 C30.875,11.205 30.7783333,10.9216667 30.565,10.74 C30.35,10.5583333 30.0533333,10.5066667 29.79,10.6033333 C25.7133333,12.1133333 13.1583333,16.8233333 8.02666667,18.7216667 C7.70166667,18.8433333 7.49,19.155 7.5,19.5 C7.51166667,19.8433333 7.74333333,20.1416667 8.07666667,20.2416667 C10.3783333,20.93 13.3983333,21.8883333 13.3983333,21.8883333 C13.3983333,21.8883333 14.81,26.1516667 15.545,28.3183333 C15.6383333,28.5916667 15.8516667,28.805 16.1316667,28.8783333 C16.4133333,28.9516667 16.7116667,28.875 16.9216667,28.6766667 C18.1033333,27.5616667 19.93,25.8366667 19.93,25.8366667 C19.93,25.8366667 23.4033333,28.3816667 25.3733333,29.785 L25.3733333,29.785 Z M14.6683333,21.3483333 L16.3016667,26.7333333 L16.665,23.3233333 C16.665,23.3233333 22.97,17.635 26.5666667,14.3933333 C26.6716667,14.2983333 26.685,14.1383333 26.5983333,14.0266667 C26.5116667,13.915 26.3516667,13.8883333 26.2333333,13.965 C22.0666667,16.625 14.6683333,21.3483333 14.6683333,21.3483333 L14.6683333,21.3483333 Z" id="telegram-4"></path>
                        </g>
                    </g>
                </g>
            </g>
        </g>
    </g>
</svg>